<svg xmlns="http://www.w3.org/2000/svg" viewBox="0 0 64 64" role="img" aria-label="SendPlug favicon">
  <rect width="64" height="64" rx="14" fill="#090909"/>
  <path fill="#FAFF69" d="M9 13h22v10h5v7h-5v4h-6v10h6v7H9c-3 0-5-2-5-5V18c0-3 2-5 5-5Z"/>
  <path fill="#FAFF69" d="M31 13h24c3 0 5 2 5 5v28c0 3-2 5-5 5H31v-7h-6V34h6v-4h5v-7h-5Z"/>
  <path fill="#090909" d="M15 25h23l11 7-11 7H15c-2 0-3-1-3-3v-8c0-2 1-3 3-3Z"/>
  <path d="m16 28 15 8 11-8" fill="none" stroke="#FAFF69" stroke-width="2.5" stroke-linecap="round"/>
</svg>
