<svg xmlns="http://www.w3.org/2000/svg" viewBox="0 0 512 512" role="img" aria-labelledby="title desc">
  <title id="title">SendPlug modular mail mark</title>
  <desc id="desc">Two product modules snap together around a sending envelope.</desc>
  <path fill="#090909" d="M76 80h164v80h48v80h-48v32h-48v80h48v80H76c-24 0-44-20-44-44V124c0-24 20-44 44-44Z"/>
  <path fill="#FAFF69" d="M240 80h196c24 0 44 20 44 44v264c0 24-20 44-44 44H240v-80h-48v-80h48v-32h48v-80h-48V80Z"/>
  <path fill="#F7F7F7" d="M126 180h180l88 76-88 76H126c-13 0-24-11-24-24V204c0-13 11-24 24-24Z"/>
  <path d="m130 207 124 83 91-80M130 305l72-54" fill="none" stroke="#090909" stroke-width="18" stroke-linecap="round" stroke-linejoin="round"/>
</svg>
