<svg xmlns="http://www.w3.org/2000/svg" viewBox="0 0 760 180" role="img" aria-labelledby="title desc">
  <title id="title">SendPlug logo for dark surfaces</title>
  <desc id="desc">Modular mail mark with the SendPlug wordmark.</desc>
  <g transform="translate(14 14) scale(.297)">
    <path fill="#F7F7F7" d="M76 80h164v80h48v80h-48v32h-48v80h48v80H76c-24 0-44-20-44-44V124c0-24 20-44 44-44Z"/>
    <path fill="#FAFF69" d="M240 80h196c24 0 44 20 44 44v264c0 24-20 44-44 44H240v-80h-48v-80h48v-32h48v-80h-48V80Z"/>
    <path fill="#090909" d="M126 180h180l88 76-88 76H126c-13 0-24-11-24-24V204c0-13 11-24 24-24Z"/>
    <path d="m130 207 124 83 91-80M130 305l72-54" fill="none" stroke="#F7F7F7" stroke-width="18" stroke-linecap="round" stroke-linejoin="round"/>
  </g>
  <text x="184" y="107" fill="#F7F7F7" font-family="Inter, ui-sans-serif, system-ui, sans-serif" font-size="76" font-weight="750" letter-spacing="-5">send<tspan fill="#FAFF69">plug</tspan></text>
  <text x="190" y="140" fill="#8D8D8D" font-family="JetBrains Mono, ui-monospace, monospace" font-size="14" font-weight="600" letter-spacing="3">PLUG IN. SEND. SEE.</text>
</svg>
